<?xml version="1.0" encoding="utf-8"?>
<!-- Generator: Adobe Illustrator 21.0.0, SVG Export Plug-In . SVG Version: 6.00 Build 0)  -->
<svg version="1.1" xmlns="http://www.w3.org/2000/svg" xmlns:xlink="http://www.w3.org/1999/xlink" x="0px" y="0px"
	 viewBox="0 0 1280 1024" style="enable-background:new 0 0 1280 1024;" xml:space="preserve">
<style type="text/css">
	.st0{display:none;}
	.st1{display:inline;}
</style>
<g id="LogoDiegoMonsalve">
	<g id="DiegoMonsalve">
		<g>
			<path d="M371.3,508.1h17.9c5.3,0,9.5,0.8,12.6,2.4c3.1,1.6,5.3,4.3,6.7,7.9c1.4,3.6,2.1,8.6,2.1,14.8c0,6.3-0.7,11.2-2.1,14.9
				c-1.4,3.6-3.6,6.3-6.7,7.9c-3.1,1.6-7.3,2.4-12.6,2.4h-17.9V508.1z M389.3,554.3c4,0,7.2-0.7,9.5-2.1c2.4-1.4,4.1-3.6,5.1-6.6
				c1.1-3,1.6-7.1,1.6-12.3c0-5.1-0.5-9.2-1.6-12.3c-1.1-3.1-2.8-5.3-5.1-6.7c-2.4-1.4-5.5-2.1-9.4-2.1h-12.7v42H389.3z"/>
			<path d="M421.5,516c-0.7-0.7-1-1.5-1-2.4c0-0.9,0.3-1.7,1-2.3c0.7-0.6,1.5-1,2.4-1c0.9,0,1.7,0.3,2.3,1c0.6,0.6,1,1.4,1,2.3
				c0,0.9-0.3,1.7-1,2.4c-0.6,0.7-1.4,1-2.3,1C423,517.1,422.2,516.7,421.5,516z M422.3,556.5c-0.6-1-0.8-2.5-0.8-4.3v-27.6h4.8
				v27.7c0,0.9,0.2,1.6,0.5,2.1c0.3,0.6,0.9,1.2,1.8,1.9l-3.2,2.9C423.9,558.5,422.8,557.6,422.3,556.5z"/>
			<path d="M457.5,554.5c1.6-0.6,3-1.6,4.4-3l3,2.8c-1.5,1.7-3.4,3-5.5,3.8c-2.1,0.8-4.7,1.2-7.7,1.2c-4.6,0-8.2-1.1-10.8-3.3
				c-2.6-2.2-3.9-5.2-3.9-9.2v-10.9c0-3.7,1.3-6.6,3.8-8.7s6-3.2,10.4-3.2c4.5,0,8,1.1,10.4,3.4c2.4,2.3,3.6,5.4,3.6,9.6
				c0,2.6-0.5,4.5-1.5,5.4c-1,1-2.8,1.5-5.5,1.5H442v3c0,2.9,0.8,5,2.5,6.4c1.7,1.4,4.2,2.1,7.6,2.1
				C454.1,555.4,455.9,555.1,457.5,554.5z M444.5,530c-1.7,1.5-2.5,3.6-2.5,6.2v4.1h14.4c1.6,0,2.7-0.3,3.3-0.8
				c0.6-0.6,0.9-1.6,0.9-3.1c0-2.7-0.8-4.8-2.4-6.3c-1.6-1.5-3.9-2.3-6.8-2.3C448.4,527.8,446.1,528.5,444.5,530z"/>
			<path d="M505.7,526.8c-0.9,0.7-1.5,1.4-1.8,1.9c-0.3,0.6-0.5,1.3-0.5,2.1V561c0,4-1.1,7-3.2,8.9c-2.1,2-5.3,3-9.6,3H482v-3.8h8.6
				c2.6,0,4.6-0.7,6-2.1c1.3-1.4,2-3.4,2-6v-8.1c-1.2,1.8-2.7,3.2-4.6,4.2c-1.9,1-4.1,1.4-6.6,1.4c-4.6,0-8.2-1.5-10.9-4.5
				c-2.7-3-4-7-4-12.1v-1.5c0-3.3,0.6-6.2,1.8-8.7c1.2-2.5,3-4.4,5.2-5.8s4.8-2.1,7.8-2.1c2.5,0,4.7,0.5,6.7,1.5
				c2,1,3.6,2.4,4.9,4.3c0-1.3,0.2-2.4,0.7-3.3c0.5-0.9,1.4-1.7,2.8-2.5L505.7,526.8z M494.9,552.7c1.7-1.3,2.9-3.2,3.7-5.8v-11.3
				c-0.8-2.6-2.1-4.5-3.7-5.8c-1.7-1.3-3.9-1.9-6.7-1.9c-3.3,0-5.9,1.2-7.8,3.5c-2,2.3-3,5.4-3,9.2v1.5c0,3.8,1,6.9,3,9.2
				c2,2.3,4.6,3.5,7.8,3.5C491,554.6,493.2,554,494.9,552.7z"/>
			<path d="M517,555.9c-2.5-2.3-3.8-5.5-3.8-9.6v-9.4c0-4.1,1.3-7.3,3.8-9.6c2.5-2.3,6-3.4,10.5-3.4c4.5,0,8,1.1,10.5,3.4
				c2.5,2.3,3.8,5.5,3.8,9.6v9.4c0,4.1-1.3,7.3-3.8,9.6c-2.5,2.3-6,3.4-10.5,3.4C523.1,559.3,519.6,558.2,517,555.9z M534.6,553.1
				c1.7-1.6,2.5-3.8,2.5-6.8v-9.4c0-2.9-0.8-5.2-2.5-6.8c-1.7-1.6-4-2.4-7-2.4s-5.4,0.8-7,2.4c-1.7,1.6-2.5,3.8-2.5,6.8v9.4
				c0,2.9,0.8,5.2,2.5,6.8c1.7,1.6,4,2.4,7,2.4S532.9,554.6,534.6,553.1z"/>
			<path d="M570.9,508.1h3.1c2.1,0,3.8,0.5,5.1,1.4c1.3,0.9,2.6,2.6,3.9,5l10.7,20.4l10.7-20.4c1.2-2.4,2.5-4.1,3.9-5
				c1.3-0.9,3-1.4,5.1-1.4h3.1v50.4h-4.9v-45.2c-0.7,0.1-1.3,0.3-1.8,0.8c-0.5,0.4-1,1.1-1.5,2.1l-14.5,27.4l-14.5-27.4
				c-0.6-1.1-1.1-1.8-1.6-2.2c-0.5-0.4-1.1-0.6-1.7-0.7v45.2h-4.9V508.1z"/>
			<path d="M631.4,555.9c-2.5-2.3-3.8-5.5-3.8-9.6v-9.4c0-4.1,1.3-7.3,3.8-9.6c2.5-2.3,6-3.4,10.5-3.4c4.5,0,8,1.1,10.5,3.4
				c2.5,2.3,3.8,5.5,3.8,9.6v9.4c0,4.1-1.3,7.3-3.8,9.6c-2.5,2.3-6,3.4-10.5,3.4C637.4,559.3,633.9,558.2,631.4,555.9z M648.9,553.1
				c1.7-1.6,2.5-3.8,2.5-6.8v-9.4c0-2.9-0.8-5.2-2.5-6.8s-4-2.4-7-2.4c-3,0-5.4,0.8-7,2.4c-1.7,1.6-2.5,3.8-2.5,6.8v9.4
				c0,2.9,0.8,5.2,2.5,6.8c1.7,1.6,4,2.4,7,2.4C644.9,555.4,647.3,554.6,648.9,553.1z"/>
			<path d="M691.2,527c1.9,2,2.9,4.9,2.9,8.5v23.1h-4.8v-22.4c0-2.6-0.6-4.7-1.9-6.2c-1.3-1.5-3-2.2-5.3-2.2c-2.6,0-4.8,1-6.7,2.9
				c-1.9,1.9-3.3,4.5-4.1,7.8v20h-4.8v-27.7c0-0.9-0.2-1.6-0.5-2.1c-0.3-0.6-0.9-1.2-1.8-1.9l3.2-2.9c1.5,0.8,2.5,1.7,3.1,2.8
				c0.6,1,0.8,2.5,0.8,4.3v0.6c1.2-2.5,2.8-4.4,4.9-5.7s4.4-2,7.1-2C686.6,523.9,689.2,524.9,691.2,527z"/>
			<path d="M708,557.9c-2-0.9-3.8-2.4-5.4-4.5l3.1-2.7c1.5,1.7,3,2.9,4.4,3.6c1.4,0.7,3.2,1,5.2,1c2.9,0,5.1-0.5,6.6-1.5
				c1.5-1,2.2-2.5,2.2-4.4c0-1.2-0.3-2.2-0.9-2.9s-1.6-1.3-3-1.9c-1.4-0.5-3.6-1.1-6.6-1.6c-6.7-1.2-10.1-4.4-10.1-9.6
				c0-3,1.1-5.4,3.3-7.1c2.2-1.7,5.2-2.6,9-2.6c2.7,0,5.1,0.5,7.2,1.4c2,0.9,3.6,2.3,4.6,4.1l-3.1,2.6c-1.1-1.4-2.4-2.5-3.8-3.2
				s-3.1-1-4.9-1c-2.4,0-4.3,0.5-5.7,1.5c-1.4,1-2.1,2.4-2.1,4.2c0,1.6,0.6,2.8,1.7,3.7c1.1,0.9,3.1,1.6,5.9,2.2
				c3.3,0.7,5.9,1.5,7.7,2.3c1.8,0.8,3.2,1.9,4,3.1c0.8,1.2,1.2,2.8,1.2,4.8c0,3.2-1.1,5.7-3.4,7.3c-2.3,1.7-5.6,2.5-10,2.5
				C712.4,559.3,710,558.9,708,557.9z"/>
			<path d="M763.8,554.5c0.3,0.6,0.9,1.2,1.8,1.9l-3.2,2.9c-1.2-0.7-2.1-1.4-2.7-2.3s-0.9-2-1-3.4c-1.2,1.8-3,3.2-5.1,4.2
				c-2.2,1-4.6,1.5-7.3,1.5c-3.6,0-6.5-0.9-8.4-2.6c-2-1.7-3-4.2-3-7.4c0-3,1-5.3,3.1-7c2.1-1.7,5.2-2.8,9.4-3.2l5.6-0.6
				c1.6-0.2,2.8-0.4,3.6-0.7c0.8-0.3,1.3-0.7,1.6-1.3c0.3-0.6,0.4-1.3,0.4-2.3c-0.4-4.5-3.6-6.7-9.4-6.7c-2.2,0-4,0.3-5.5,1
				c-1.5,0.7-2.9,1.8-4,3.3l-3.3-2.4c2.3-3.6,6.5-5.5,12.8-5.5c4.6,0,8.1,1,10.5,3c2.4,2,3.6,4.8,3.6,8.5v17.1
				C763.3,553.3,763.5,554,763.8,554.5z M755.5,553c2.1-1.7,3.1-4,3.1-6.8v-5.8c-0.6,0.4-1.3,0.8-2.1,1c-0.8,0.2-1.9,0.4-3.4,0.5
				l-5.3,0.6c-2.7,0.3-4.8,1.1-6.2,2.3c-1.4,1.2-2.1,2.7-2.1,4.6c0,4.2,2.6,6.3,7.9,6.3C750.7,555.6,753.4,554.7,755.5,553z"/>
			<path d="M774.5,556.5c-0.6-1-0.8-2.5-0.8-4.3v-39c0-0.9-0.2-1.6-0.5-2.2c-0.3-0.6-0.9-1.2-1.8-1.8l3.2-2.9
				c1.5,0.8,2.5,1.7,3.1,2.8c0.6,1,0.8,2.5,0.8,4.3v39c0,0.9,0.2,1.6,0.5,2.1c0.3,0.6,0.9,1.2,1.8,1.9l-3.2,2.9
				C776.1,558.5,775.1,557.6,774.5,556.5z"/>
			<path d="M797.2,557.6c-1.1-1.2-2-3.2-2.9-6l-8.2-26.9h4.7l8,26.6c0.5,1.8,1,2.9,1.3,3.4c0.3,0.5,0.8,0.8,1.4,0.8
				c0.6,0,1.1-0.3,1.4-0.8c0.3-0.5,0.8-1.7,1.3-3.4l8-26.6h4.7l-8.1,26.9c-0.9,2.9-1.8,4.9-2.9,6c-1.1,1.2-2.5,1.7-4.3,1.7
				C799.7,559.3,798.3,558.7,797.2,557.6z"/>
			<path d="M842.3,554.5c1.6-0.6,3-1.6,4.4-3l3,2.8c-1.5,1.7-3.4,3-5.5,3.8s-4.7,1.2-7.7,1.2c-4.6,0-8.2-1.1-10.8-3.3
				c-2.6-2.2-3.9-5.2-3.9-9.2v-10.9c0-3.7,1.3-6.6,3.8-8.7c2.5-2.1,6-3.2,10.4-3.2c4.5,0,8,1.1,10.4,3.4c2.4,2.3,3.6,5.4,3.6,9.6
				c0,2.6-0.5,4.5-1.5,5.4c-1,1-2.8,1.5-5.5,1.5h-16.4v3c0,2.9,0.8,5,2.5,6.4c1.7,1.4,4.2,2.1,7.6,2.1
				C838.9,555.4,840.7,555.1,842.3,554.5z M829.2,530c-1.7,1.5-2.5,3.6-2.5,6.2v4.1h14.4c1.6,0,2.7-0.3,3.3-0.8
				c0.6-0.6,0.9-1.6,0.9-3.1c0-2.7-0.8-4.8-2.4-6.3c-1.6-1.5-3.9-2.3-6.8-2.3C833.2,527.8,830.9,528.5,829.2,530z"/>
		</g>
	</g>
	<g id="_x31_2_1_">
		<g>
			<path d="M854.4,552.8V564h-1.1v-10.2l-2.5,1.5v-1l2.6-1.5H854.4z"/>
			<path d="M864.5,563.1v0.9h-7.8v-0.8l4-3.6c0.9-0.8,1.5-1.5,1.9-2.1c0.4-0.6,0.6-1.2,0.6-1.8c0-0.7-0.3-1.3-0.8-1.7
				c-0.5-0.4-1.2-0.6-2.1-0.6c-1.2,0-2.1,0.4-2.8,1.3l-0.5-0.8c0.4-0.4,0.9-0.8,1.5-1c0.6-0.2,1.2-0.3,1.9-0.3
				c1.2,0,2.1,0.3,2.8,0.8c0.7,0.5,1,1.3,1,2.2c0,1.3-0.7,2.7-2.2,4l-3.9,3.5H864.5z"/>
		</g>
	</g>
</g>
<g id="LogoMonsa" class="st0">
	<g id="_x31_2" class="st1">
		<g>
			<path d="M724.1,558.1v11.2H723v-10.2l-2.5,1.5v-1l2.6-1.5H724.1z"/>
			<path d="M734.2,568.5v0.9h-7.8v-0.8l4-3.6c0.9-0.8,1.5-1.5,1.9-2.1c0.4-0.6,0.6-1.2,0.6-1.8c0-0.7-0.3-1.3-0.8-1.7
				c-0.5-0.4-1.2-0.6-2.1-0.6c-1.2,0-2.1,0.4-2.8,1.3l-0.5-0.8c0.4-0.4,0.9-0.8,1.5-1c0.6-0.2,1.2-0.3,1.9-0.3
				c1.2,0,2.1,0.3,2.8,0.8c0.7,0.5,1,1.3,1,2.2c0,1.3-0.7,2.7-2.2,4l-3.9,3.5H734.2z"/>
		</g>
	</g>
	<g id="Monsa" class="st1">
		<g>
			<path d="M526.8,508.9h3.1c2.1,0,3.8,0.5,5.1,1.4c1.3,0.9,2.6,2.6,3.9,5l10.7,20.4l10.7-20.4c1.2-2.4,2.5-4.1,3.9-5
				c1.3-0.9,3-1.4,5.1-1.4h3.1v50.4h-4.9v-45.2c-0.7,0.1-1.3,0.3-1.8,0.8c-0.5,0.4-1,1.1-1.5,2.1l-14.5,27.4L535,517
				c-0.6-1.1-1.1-1.8-1.6-2.2c-0.5-0.4-1.1-0.6-1.7-0.7v45.2h-4.9V508.9z"/>
			<path d="M587.3,556.7c-2.5-2.3-3.8-5.5-3.8-9.6v-9.4c0-4.1,1.3-7.3,3.8-9.6c2.5-2.3,6-3.4,10.5-3.4c4.5,0,8,1.1,10.5,3.4
				c2.5,2.3,3.8,5.5,3.8,9.6v9.4c0,4.1-1.3,7.3-3.8,9.6c-2.5,2.3-6,3.4-10.5,3.4C593.3,560.1,589.8,559,587.3,556.7z M604.9,553.9
				c1.7-1.6,2.5-3.8,2.5-6.8v-9.4c0-2.9-0.8-5.2-2.5-6.8c-1.7-1.6-4-2.4-7-2.4s-5.4,0.8-7,2.4c-1.7,1.6-2.5,3.8-2.5,6.8v9.4
				c0,2.9,0.8,5.2,2.5,6.8c1.7,1.6,4,2.4,7,2.4S603.2,555.4,604.9,553.9z"/>
			<path d="M647.1,527.8c1.9,2,2.9,4.9,2.9,8.5v23.1h-4.8v-22.4c0-2.6-0.6-4.7-1.9-6.2c-1.3-1.5-3-2.2-5.3-2.2c-2.6,0-4.8,1-6.7,2.9
				c-1.9,1.9-3.3,4.5-4.1,7.8v20h-4.8v-27.7c0-0.9-0.2-1.6-0.5-2.1c-0.3-0.6-0.9-1.2-1.8-1.9l3.2-2.9c1.5,0.8,2.5,1.7,3.1,2.8
				c0.6,1,0.8,2.5,0.8,4.3v0.6c1.2-2.5,2.8-4.4,4.9-5.7c2-1.3,4.4-2,7.1-2C642.5,524.7,645.2,525.7,647.1,527.8z"/>
			<path d="M663.9,558.8c-2-0.9-3.8-2.4-5.4-4.5l3.1-2.7c1.5,1.7,3,2.9,4.4,3.6c1.4,0.7,3.2,1,5.2,1c2.9,0,5.1-0.5,6.6-1.5
				c1.5-1,2.2-2.5,2.2-4.4c0-1.2-0.3-2.2-0.9-2.9s-1.6-1.3-3-1.9c-1.4-0.5-3.6-1.1-6.6-1.6c-6.7-1.2-10.1-4.4-10.1-9.6
				c0-3,1.1-5.4,3.3-7.1c2.2-1.7,5.2-2.6,9-2.6c2.7,0,5.1,0.5,7.2,1.4c2,0.9,3.6,2.3,4.6,4.1l-3.1,2.6c-1.1-1.4-2.4-2.5-3.8-3.2
				s-3.1-1-4.9-1c-2.4,0-4.3,0.5-5.7,1.5c-1.4,1-2.1,2.4-2.1,4.2c0,1.6,0.6,2.8,1.7,3.7c1.1,0.9,3.1,1.6,5.9,2.2
				c3.3,0.7,5.9,1.5,7.7,2.3c1.8,0.8,3.2,1.9,4,3.1c0.8,1.2,1.2,2.8,1.2,4.8c0,3.2-1.1,5.7-3.4,7.3c-2.3,1.7-5.6,2.5-10,2.5
				C668.3,560.1,665.9,559.7,663.9,558.8z"/>
			<path d="M719.7,555.3c0.3,0.6,0.9,1.2,1.8,1.9l-3.2,2.9c-1.2-0.7-2.1-1.4-2.7-2.3s-0.9-2-1-3.4c-1.2,1.8-3,3.2-5.1,4.2
				s-4.6,1.5-7.3,1.5c-3.6,0-6.5-0.9-8.4-2.6c-2-1.7-3-4.2-3-7.4c0-3,1-5.3,3.1-7c2.1-1.7,5.2-2.8,9.4-3.2l5.6-0.6
				c1.6-0.2,2.8-0.4,3.6-0.7c0.8-0.3,1.3-0.7,1.6-1.3c0.3-0.6,0.4-1.3,0.4-2.3c-0.4-4.5-3.6-6.7-9.4-6.7c-2.2,0-4,0.3-5.5,1
				c-1.5,0.7-2.9,1.8-4,3.3l-3.3-2.4c2.3-3.6,6.5-5.5,12.8-5.5c4.6,0,8.1,1,10.5,3c2.4,2,3.6,4.8,3.6,8.5v17.1
				C719.2,554.1,719.4,554.8,719.7,555.3z M711.4,553.8c2.1-1.7,3.1-4,3.1-6.8v-5.8c-0.6,0.4-1.3,0.8-2.1,1
				c-0.8,0.2-1.9,0.4-3.4,0.5l-5.3,0.6c-2.7,0.3-4.8,1.1-6.2,2.3c-1.4,1.2-2.1,2.7-2.1,4.6c0,4.2,2.6,6.3,7.9,6.3
				C706.6,556.4,709.3,555.5,711.4,553.8z"/>
		</g>
	</g>
</g>
</svg>
